<svg id="Capa_1" enable-background="new 0 0 512 512" height="512" viewBox="0 0 512 512" width="512" xmlns="http://www.w3.org/2000/svg"><g><g><g><g><g><g><g><circle cx="256" cy="256" fill="#7584f2" r="256"/></g></g></g></g></g></g><path d="m512 256c0-34.785-6.938-67.949-19.505-98.184l-91.217-91.217-14.413 48.359-136.865-43.042-132.606 45.48 68.26 68.26-77.854 137.615 51.541 51.541-57.897 67.207 45.796 45.796c33.01 15.514 69.872 24.185 108.76 24.185 141.385 0 256-114.615 256-256z" fill="#4253ce"/><path d="m256 422.019c-37.315.001-72.749-12.227-101.729-34.785h31.958v-30h-84.785v84.785h30v-34.635c35.006 28.909 78.572 44.636 124.556 44.635.763 0 1.523-.019 2.285-.028v-30c-.761.01-1.522.028-2.285.028z" fill="#1dd882"/><g><g><g><g><g><g><path d="m373.393 373.391c-31.328 31.329-72.972 48.594-117.272 48.626v30c52.313-.032 101.491-20.418 138.485-57.413z" fill="#02cc4a"/></g><g><path d="m117.394 117.396 21.213 21.213c32.835-32.836 76.115-49.004 119.245-48.528v-29.986c-50.812-.475-101.774 18.616-140.458 57.301z" fill="#1dd882"/></g></g></g></g></g></g><g><g><circle cx="357.871" cy="256" fill="#ffc200" r="89.803"/></g><g><path d="m447.674 256c0-49.578-40.176-89.771-89.746-89.802v179.604c49.57-.031 89.746-40.224 89.746-89.802z" fill="#ffa300"/></g><g><circle cx="357.871" cy="256" fill="#ffa300" r="66.378"/></g><g><path d="m424.249 256c0-36.641-29.688-66.346-66.321-66.376v132.753c36.633-.031 66.321-29.736 66.321-66.377z" fill="#fe8205"/></g><g><path d="m395.094 273.696c0-17.962-14.697-23.644-28.455-27.193v-19.019c5.7 1.519 11.172 4.314 15.708 8.514l10.712-14.103c-7.046-6.512-15.941-10.587-26.421-12.026v-9.994h-17.537v10.161c-16.081 2.909-25.608 13.899-25.608 26.775 0 16.832 12.734 22.654 25.608 26.174v21.472c-7.487-2.073-13.597-6.157-18.013-10.762l-10.442 14.646c6.735 6.844 16.081 11.947 28.455 13.706v10.076h17.537v-9.87c19.161-2.393 28.456-13.872 28.456-28.557zm-51.936-38.511c0-3.641 2.077-6.487 5.945-7.966v14.485c-3.64-1.528-5.945-3.491-5.945-6.519zm23.481 49.904v-17.564c5.318 1.786 8.928 4.128 8.928 8.341 0 3.89-2.937 7.626-8.928 9.223z" fill="#ffc200"/></g><g><path d="m366.639 246.504v-19.02c5.7 1.519 11.172 4.314 15.708 8.514l10.712-14.103c-7.046-6.513-15.941-10.587-26.421-12.026v-9.994h-8.711v112.249h8.711v-9.87c19.159-2.394 28.455-13.873 28.455-28.558.001-17.962-14.696-23.644-28.454-27.192zm0 38.585v-17.563c5.318 1.786 8.927 4.128 8.927 8.341.001 3.889-2.936 7.625-8.927 9.222z" fill="#ffa300"/></g></g><g><g><g><g><g><g><g><path d="m251.6 255.992c0 24.143-9.763 45.968-25.513 61.818l-61.947 25.824c-23.544 0-45.001-9.234-60.789-24.341l-27.025-63.293c0-24.388 9.962-46.486 26.083-62.373l61.731-25.26c23.943 0 45.563 9.661 61.337 25.223z" fill="#fff"/></g></g></g></g></g></g><g><g><g><g><g><g><path d="m164.14 168.366c23.943 0 45.563 9.661 61.337 25.223l26.123 62.402c0 24.143-9.763 45.968-25.513 61.818l-61.947 25.824z" fill="#e9edf5"/></g></g></g></g></g></g><g><g><g><g><g><g><path d="m164.14 168.366c-.082 0 .082 0 0 0-23.992 0-45.905 9.641-61.731 25.26l61.731 62.051z" fill="#ff6c52"/></g><g><path d="m76.326 256c0 24.882 10.371 47.34 27.024 63.292l60.789-62.64v-.661z" fill="#ff6c52"/></g><g><path d="m164.14 255.992v-.314z" fill="#ff6c52"/></g><g><path d="m225.477 193.589-61.337 62.402h87.46c-.002-24.425-10.001-46.511-26.123-62.402z" fill="#ff432e"/></g><g><path d="m164.14 255.992v.167z" fill="#ff6c52"/></g><g><path d="m164.14 256.652v-.493-.167z" fill="#ff6c52"/></g><g><path d="m164.14 256.652v86.981c24.183-.066 46.129-9.927 61.947-25.824l-61.947-61.651z" fill="#ff432e"/></g></g></g></g></g></g><g><g><g><g><g><g><path d="m164.14 203.728c28.869 0 52.095 23.403 52.095 52.272s-23.226 52.272-52.095 52.272-52.449-23.403-52.449-52.272c0-28.87 23.58-52.272 52.449-52.272z" fill="#fff"/><path d="m164.14 203.728c-.004 0 .004 0 0 0v104.543c28.869 0 52.095-23.403 52.095-52.272s-23.226-52.271-52.095-52.271z" fill="#e9edf5"/><path d="m164.14 323.272c-37.094 0-67.448-30.178-67.448-67.272s30.355-67.272 67.448-67.272c37.094 0 67.096 30.178 67.096 67.272-.001 37.093-30.003 67.272-67.096 67.272zm0-104.545c-20.552 0-37.448 16.72-37.448 37.272s16.897 37.272 37.448 37.272c20.552 0 37.096-16.72 37.096-37.272-.001-20.551-16.545-37.272-37.096-37.272z" fill="#dce1eb"/><path d="m164.14 188.728c-.004 0 .004 0 0 0v30c20.552 0 37.096 16.72 37.096 37.272s-16.544 37.272-37.096 37.272c-.004 0 .004 0 0 0v30c37.094 0 67.096-30.178 67.096-67.272s-30.003-67.272-67.096-67.272z" fill="#bec3d2"/></g></g></g></g></g></g></g><g><path d="m148.963 231.915h30v48.17h-30z" fill="#ff6c52"/></g><g><path d="m164.14 231.915h14.823v48.17h-14.823z" fill="#ff432e"/></g><path d="m371.278 66.599v30.841c-34.188-24.886-74.669-37.342-115.158-37.366v29.986c34.11.024 68.214 10.465 97.071 31.324h-36.698v30h84.785v-84.785z" fill="#06bf51"/></g></svg>